<?xml version="1.0" encoding="UTF-8" standalone="no"?>
<svg
   viewBox="0 0 512 512"
   version="1.1"
   id="svg4"
   sodipodi:docname="blog.svg"
   inkscape:version="1.1 (c4e8f9ed74, 2021-05-24)"
   xmlns:inkscape="http://www.inkscape.org/namespaces/inkscape"
   xmlns:sodipodi="http://sodipodi.sourceforge.net/DTD/sodipodi-0.dtd"
   xmlns="http://www.w3.org/2000/svg"
   xmlns:svg="http://www.w3.org/2000/svg">
  <defs
     id="defs8" />
  <sodipodi:namedview
     id="namedview6"
     pagecolor="#ffffff"
     bordercolor="#666666"
     borderopacity="1.0"
     inkscape:pageshadow="2"
     inkscape:pageopacity="0.0"
     inkscape:pagecheckerboard="0"
     showgrid="false"
     inkscape:zoom="1.2890625"
     inkscape:cx="72.921212"
     inkscape:cy="245.13939"
     inkscape:window-width="1280"
     inkscape:window-height="951"
     inkscape:window-x="0"
     inkscape:window-y="0"
     inkscape:window-maximized="1"
     inkscape:current-layer="svg4" />
  <!-- Font Awesome Free 5.15.4 by @fontawesome - https://fontawesome.com License - https://fontawesome.com/license/free (Icons: CC BY 4.0, Fonts: SIL OFL 1.1, Code: MIT License) -->
  <path
     d="M172.2 226.8c-14.6-2.9-28.2 8.9-28.2 23.8V301c0 10.2 7.1 18.4 16.7 22 18.2 6.8 31.3 24.4 31.3 45 0 26.5-21.5 48-48 48s-48-21.5-48-48V120c0-13.3-10.7-24-24-24H24c-13.3 0-24 10.7-24 24v248c0 89.5 82.1 160.2 175 140.7 54.4-11.4 98.3-55.4 109.7-109.7 17.4-82.9-37-157.2-112.5-172.2zM209 0c-9.2-.5-17 6.8-17 16v31.6c0 8.5 6.6 15.5 15 15.9 129.4 7 233.4 112 240.9 241.5.5 8.4 7.5 15 15.9 15h32.1c9.2 0 16.5-7.8 16-17C503.4 139.8 372.2 8.6 209 0zm.3 96c-9.3-.7-17.3 6.7-17.3 16.1v32.1c0 8.4 6.5 15.3 14.8 15.9 76.8 6.3 138 68.2 144.9 145.2.8 8.3 7.6 14.7 15.9 14.7h32.2c9.3 0 16.8-8 16.1-17.3-8.4-110.1-96.5-198.2-206.6-206.7z"
     id="path2" />
  <path
     style="fill:#ffffff;stroke-width:1.55152"
     d="M 119.32496,508.81319 C 67.258593,499.38578 23.971212,461.68737 8.0751889,411.92727 0.68624275,388.79728 0.77575758,390.79508 0.77575758,249.01818 c 0,-131.41567 0.0645176,-134.31559 3.10303032,-139.47418 6.6257611,-11.248787 8.3588361,-11.748914 42.3875801,-12.232131 33.704153,-0.478607 37.716961,0.377285 44.386979,9.467301 3.176606,4.32913 3.222183,5.90722 3.989077,138.11954 l 0.775758,133.74037 5.107588,10.37292 c 9.29153,18.87002 25.61991,28.46991 46.25498,27.19455 13.17038,-0.814 22.65609,-4.96602 31.46096,-13.7709 10.2325,-10.23251 13.37542,-18.41371 13.34064,-34.72656 -0.0258,-12.06695 -0.5889,-15.03072 -4.14613,-21.81967 -5.08447,-9.70363 -14.21587,-18.12654 -25.38378,-23.41429 -9.84969,-4.6636 -15.68256,-10.88577 -17.05306,-18.19119 -0.53159,-2.83359 -0.73392,-17.77474 -0.44962,-33.20258 0.57298,-31.09345 1.07666,-32.76554 12.13749,-40.29348 6.35217,-4.32325 11.6047,-4.3793 26.42272,-0.28194 48.4564,13.39875 87.75474,54.47414 100.34907,104.88678 3.76792,15.08223 3.70052,51.85369 -0.1204,65.67395 -7.80615,28.23506 -19.00738,48.21428 -37.73829,67.31245 -32.61566,33.25516 -80.76816,48.67385 -126.27543,40.43407 z"
     id="path464" />
  <path
     style="fill:#ffffff;stroke-width:1.55152"
     d="m 357.91355,315.08981 c -4.28148,-3.96794 -4.43764,-4.45216 -7.29803,-22.6292 -4.03125,-25.61766 -16.39167,-52.93444 -33.75241,-74.5935 -25.3175,-31.58585 -63.82263,-52.76846 -105.63283,-58.11122 -5.92644,-0.75731 -9.70812,-2.3118 -13.18788,-5.42096 l -4.87876,-4.35918 V 128 106.02425 l 5.29315,-4.72944 c 5.21211,-4.657013 5.47889,-4.713944 17.42204,-3.717924 26.49486,2.209588 62.62213,14.110924 87.83763,28.936184 36.77687,21.62267 69.22836,55.74373 87.56674,92.07185 15.61685,30.93681 27.17839,78.05812 22.16839,90.35171 -3.60208,8.83882 -6.8541,9.89973 -30.34601,9.89973 -20.20993,0 -21.32902,-0.16643 -25.19203,-3.74655 z"
     id="path503" />
  <path
     style="fill:#ffffff;stroke-width:1.55152"
     d="m 455.16341,316.08671 c -4.9817,-4.03534 -6.25981,-7.70016 -7.4279,-21.29883 C 441.7547,225.16035 403.53029,157.07476 346.24976,114.02075 308.29072,85.489422 267.60773,69.351809 219.81362,63.867659 203.45341,61.990403 201.02055,61.31414 197.31665,57.614175 c -4.01269,-4.008427 -4.16751,-4.815964 -4.58219,-23.899571 -0.46637,-21.462639 0.41262,-24.8934378 7.77892,-30.3621695 4.07149,-3.02266782 4.99975,-3.07452754 22.49697,-1.2568615 134.81804,14.005316 245.92666,109.840617 278.82324,240.495377 4.6843,18.60455 8.61489,44.86565 8.61489,57.55782 0,8.56085 -0.49814,10.11535 -4.5352,14.15239 l -4.53519,4.5352 -21.45269,-0.0344 c -17.98027,-0.0289 -21.98833,-0.46839 -24.76199,-2.71515 z"
     id="path542" />
</svg>
