<?xml version="1.0" encoding="UTF-8" standalone="no"?>
<svg
   viewBox="0 0 384 512"
   version="1.1"
   id="svg4"
   sodipodi:docname="code-branch.svg"
   inkscape:version="1.1 (c4e8f9ed74, 2021-05-24)"
   xmlns:inkscape="http://www.inkscape.org/namespaces/inkscape"
   xmlns:sodipodi="http://sodipodi.sourceforge.net/DTD/sodipodi-0.dtd"
   xmlns="http://www.w3.org/2000/svg"
   xmlns:svg="http://www.w3.org/2000/svg">
  <defs
     id="defs8" />
  <sodipodi:namedview
     id="namedview6"
     pagecolor="#ffffff"
     bordercolor="#666666"
     borderopacity="1.0"
     inkscape:pageshadow="2"
     inkscape:pageopacity="0.0"
     inkscape:pagecheckerboard="0"
     showgrid="false"
     inkscape:zoom="1.4142136"
     inkscape:cx="222.73864"
     inkscape:cy="304.76302"
     inkscape:window-width="1280"
     inkscape:window-height="951"
     inkscape:window-x="0"
     inkscape:window-y="0"
     inkscape:window-maximized="1"
     inkscape:current-layer="svg4" />
  <!-- Font Awesome Free 5.15.4 by @fontawesome - https://fontawesome.com License - https://fontawesome.com/license/free (Icons: CC BY 4.0, Fonts: SIL OFL 1.1, Code: MIT License) -->
  <path
     d="M384 144c0-44.2-35.8-80-80-80s-80 35.8-80 80c0 36.4 24.3 67.1 57.5 76.8-.6 16.1-4.2 28.5-11 36.9-15.4 19.2-49.3 22.4-85.2 25.7-28.2 2.6-57.4 5.4-81.3 16.9v-144c32.5-10.2 56-40.5 56-76.3 0-44.2-35.8-80-80-80S0 35.8 0 80c0 35.8 23.5 66.1 56 76.3v199.3C23.5 365.9 0 396.2 0 432c0 44.2 35.8 80 80 80s80-35.8 80-80c0-34-21.2-63.1-51.2-74.6 3.1-5.2 7.8-9.8 14.9-13.4 16.2-8.2 40.4-10.4 66.1-12.8 42.2-3.9 90-8.4 118.2-43.4 14-17.4 21.1-39.8 21.6-67.9 31.6-10.8 54.4-40.7 54.4-75.9zM80 64c8.8 0 16 7.2 16 16s-7.2 16-16 16-16-7.2-16-16 7.2-16 16-16zm0 384c-8.8 0-16-7.2-16-16s7.2-16 16-16 16 7.2 16 16-7.2 16-16 16zm224-320c8.8 0 16 7.2 16 16s-7.2 16-16 16-16-7.2-16-16 7.2-16 16-16z"
     id="path2" />
  <path
     style="fill:#ffffff;stroke-width:0.707107"
     d="M 67.175144,510.59616 C 39.116181,505.57606 16.171066,486.96093 5.9462843,460.92183 -1.8055354,441.18054 -1.1318945,417.66425 7.7272579,398.74941 16.446184,380.13396 33.250876,364.34326 51.379086,357.73153 l 5.189456,-1.8927 V 256.00672 156.1746 L 50.51669,153.82053 C 40.90536,150.08188 32.484877,144.48999 24.392003,136.47161 13.676195,125.85444 7.0071284,114.63052 3.1295036,100.68723 0.48633786,91.182833 -0.05582891,74.421723 1.9654442,64.70027 3.8037635,55.858747 7.4829737,46.238211 11.682859,39.29081 33.277967,3.5684347 78.360661,-9.6889765 115.35323,8.8045938 147.51967,24.885457 165.1141,60.688228 157.98529,95.556267 152.5976,121.90825 133.94152,144.27905 109.38559,153.83295 l -5.08734,1.97932 -0.18009,72.46672 -0.18008,72.46673 5.5926,-2.35866 c 17.41841,-7.34615 33.41137,-10.39247 77.85262,-14.82927 35.72169,-3.56629 49.69644,-6.04794 62.16008,-11.03847 7.69333,-3.08045 12.33364,-5.91184 17.28888,-10.5492 9.03964,-8.45972 13.14967,-19.06801 14.82502,-38.2645 l 0.28587,-3.27567 -2.90897,-0.85149 c -1.59994,-0.46832 -5.77277,-2.21463 -9.27294,-3.88068 -21.12948,-10.05745 -36.79503,-28.96955 -42.71345,-51.5654 -9.50051,-36.27189 7.61535,-74.029709 41.29923,-91.106698 11.73322,-5.948477 22.07503,-8.376275 35.73842,-8.38979 20.99306,-0.02076 39.37771,7.348434 54.58887,21.88109 14.62347,13.971178 22.83206,31.019118 24.54359,50.973138 2.89032,33.69699 -16.54838,66.03568 -47.87518,79.64626 -6.10593,2.65286 -6.35336,3.02602 -6.46758,9.75415 -0.10373,6.10982 -2.00219,18.23405 -4.05556,25.90014 -8.20536,30.63411 -27.53865,51.61458 -58.94743,63.96968 -16.48527,6.48472 -36.70071,10.20685 -77.07464,14.19123 -38.74797,3.82393 -51.95847,6.40957 -64.70027,12.66356 -6.19723,3.04175 -11.20636,7.08657 -14.49421,11.70394 l -1.5076,2.11722 5.22516,2.38118 c 14.05405,6.40464 26.83379,17.93906 34.97414,31.56612 27.25285,45.62162 2.70058,104.45152 -49.179898,117.84037 -8.498186,2.19314 -23.700614,2.84626 -31.939688,1.37219 z m 19.024729,-63.50769 c 1.324248,-0.40292 3.717154,-2.04396 5.317563,-3.64676 7.610435,-7.62181 5.654875,-21.05317 -3.764962,-25.85882 -8.442805,-4.30719 -18.240427,-1.06467 -22.386044,7.40867 -1.645558,3.3634 -1.864083,4.52108 -1.536122,8.13788 1.038865,11.45678 10.725949,17.50171 22.369565,13.95903 z M 310.77343,158.84046 c 12.5911,-5.73442 12.62154,-23.67038 0.0501,-29.52423 -6.0806,-2.83141 -12.32305,-1.95394 -17.47562,2.45648 -8.94699,7.65828 -6.81707,22.1007 3.99049,27.05843 3.66647,1.68192 9.75322,1.68614 13.43503,0.009 z M 87.543935,94.468801 c 5.248584,-2.677623 8.622587,-8.128666 8.622587,-13.930654 0,-10.047252 -6.367836,-16.544984 -16.214241,-16.544984 -12.904647,0 -20.401942,13.258111 -13.834461,24.464665 4.251884,7.255297 13.758977,9.922454 21.426115,6.010973 z"
     id="path552" />
</svg>
