<?xml version="1.0" encoding="UTF-8" standalone="no"?>
<svg
   viewBox="0 0 512 512"
   version="1.1"
   id="svg4"
   sodipodi:docname="download.svg"
   inkscape:version="1.1 (c4e8f9ed74, 2021-05-24)"
   xmlns:inkscape="http://www.inkscape.org/namespaces/inkscape"
   xmlns:sodipodi="http://sodipodi.sourceforge.net/DTD/sodipodi-0.dtd"
   xmlns="http://www.w3.org/2000/svg"
   xmlns:svg="http://www.w3.org/2000/svg">
  <defs
     id="defs8" />
  <sodipodi:namedview
     id="namedview6"
     pagecolor="#ffffff"
     bordercolor="#666666"
     borderopacity="1.0"
     inkscape:pageshadow="2"
     inkscape:pageopacity="0.0"
     inkscape:pagecheckerboard="0"
     showgrid="false"
     inkscape:zoom="1.2890625"
     inkscape:cx="256"
     inkscape:cy="255.22424"
     inkscape:window-width="1280"
     inkscape:window-height="951"
     inkscape:window-x="0"
     inkscape:window-y="0"
     inkscape:window-maximized="1"
     inkscape:current-layer="svg4" />
  <!-- Font Awesome Free 5.15.4 by @fontawesome - https://fontawesome.com License - https://fontawesome.com/license/free (Icons: CC BY 4.0, Fonts: SIL OFL 1.1, Code: MIT License) -->
  <path
     d="M216 0h80c13.3 0 24 10.7 24 24v168h87.7c17.8 0 26.7 21.5 14.1 34.1L269.7 378.3c-7.5 7.5-19.8 7.5-27.3 0L90.1 226.1c-12.6-12.6-3.7-34.1 14.1-34.1H192V24c0-13.3 10.7-24 24-24zm296 376v112c0 13.3-10.7 24-24 24H24c-13.3 0-24-10.7-24-24V376c0-13.3 10.7-24 24-24h146.7l49 49c20.1 20.1 52.5 20.1 72.6 0l49-49H488c13.3 0 24 10.7 24 24zm-124 88c0-11-9-20-20-20s-20 9-20 20 9 20 20 20 20-9 20-20zm64 0c0-11-9-20-20-20s-20 9-20 20 9 20 20 20 20-9 20-20z"
     id="path2" />
  <path
     style="fill:#ffffff;stroke-width:0.775758"
     d="m 250.18182,382.47242 c -1.70667,-0.64032 -3.27354,-1.16947 -3.48196,-1.17589 -1.1889,-0.0367 -158.616553,-158.35285 -159.882543,-160.78496 -2.230436,-4.28491 -2.640284,-8.96764 -1.21205,-13.8483 1.559514,-5.32929 5.009083,-9.49146 10.085346,-12.16877 l 3.994235,-2.10662 46.351512,-0.23336 46.35152,-0.23334 v -85.59272 c 0,-98.6636059 -0.59468,-90.669073 7.33547,-98.6136168 7.67181,-7.68572645 5.47832,-7.41443131 57.87058,-7.15756782 l 44.56365,0.2184822 3.55765,1.77109892 c 4.60224,2.2911175 9.44134,7.1172234 11.71002,11.6785805 l 1.79899,3.616987 0.20698,87.039406 0.20698,87.03941 46.33848,0.23332 46.33847,0.23332 3.87879,2.05654 c 4.56507,2.42042 6.54349,4.44127 8.99891,9.19194 2.44434,4.72922 2.5072,12.26593 0.13913,16.67879 -2.0992,3.91181 -157.83802,159.53561 -161.46775,161.3485 -3.69271,1.84435 -9.93824,2.21352 -13.68241,0.80877 z"
     id="path65" />
  <path
     style="fill:#ffffff;stroke-width:0.775758"
     d="m 16.548814,510.17876 c -5.194471,-1.79847 -9.1814994,-4.88671 -11.9549273,-9.25995 -4.35466781,-6.8666 -4.20600791,-4.43412 -4.20600791,-68.82184 0,-69.10232 -0.42180841,-64.91141 7.29997421,-72.5295 7.613705,-7.51147 1.1483601,-6.99388 87.30775,-6.98949 l 75.213787,0.004 26.41046,26.22864 c 25.87517,25.69704 30.98627,30.09319 38.82257,33.39205 12.85985,5.41362 28.2924,5.41143 41.11516,-0.006 8.11585,-3.42872 12.87913,-7.51864 38.82257,-33.33439 l 26.41046,-26.28048 75.21379,-0.004 c 86.15939,-0.004 79.69405,-0.52198 87.30775,6.98949 7.72515,7.62141 7.29997,3.37445 7.29997,72.91738 v 60.12121 l -2.01783,4.30207 c -2.78495,5.93756 -6.2303,9.60461 -11.41705,12.15168 l -4.40754,2.16443 -236.60606,0.17124 C 31.611481,511.5587 20.370292,511.50186 16.548814,510.17876 Z m 361.441836,-28.6192 c 10.2224,-5.70631 13.40454,-19.17764 6.83919,-28.9532 -7.87618,-11.72736 -26.07454,-11.78419 -33.48155,-0.10455 -5.72614,9.02919 -4.84864,18.58082 2.37024,25.79968 6.59082,6.59083 16.03159,7.85806 24.27212,3.25807 z m 60.24525,1.68548 c 5.24244,-1.55684 10.20387,-6.07923 12.48383,-11.37913 3.35895,-7.80811 0.96667,-17.97243 -5.51332,-23.42498 -3.79334,-3.1919 -7.60843,-4.52543 -13.11641,-4.58476 -6.31397,-0.068 -11.1575,2.10047 -15.3629,6.87805 -3.51106,3.98878 -4.8061,7.78892 -4.78279,14.03457 0.02,5.36166 1.77324,9.64347 5.46539,13.3478 5.85289,5.87221 12.66938,7.55076 20.8262,5.12845 z"
     id="path104" />
  <path
     style="fill:#000000;stroke-width:0.775758"
     d="m 363.04952,482.96003 c -10.80583,-3.28699 -17.01319,-14.5109 -13.64068,-24.66458 3.91001,-11.77196 16.9484,-17.18662 27.52434,-11.43048 12.26835,6.67728 14.20536,22.83108 3.80515,31.73327 -5.02157,4.29828 -12.1329,6.05182 -17.68881,4.36179 z"
     id="path217" />
  <path
     style="fill:#000000;stroke-width:0.775758"
     d="m 426.50562,482.7009 c -8.40768,-2.79295 -13.81677,-10.15241 -13.78555,-18.75625 0.0217,-5.97527 1.82066,-9.95548 6.40014,-14.16018 8.30139,-7.62201 20.04025,-6.91741 27.5666,1.65463 8.32352,9.47996 5.24268,24.15406 -6.30839,30.04698 -3.7809,1.92887 -10.06639,2.47928 -13.8728,1.21482 z"
     id="path293" />
</svg>
