<?xml version="1.0" encoding="UTF-8" standalone="no"?>
<svg
   viewBox="0 0 576 512"
   version="1.1"
   id="svg4"
   sodipodi:docname="home.svg"
   inkscape:version="1.1 (c4e8f9ed74, 2021-05-24)"
   xmlns:inkscape="http://www.inkscape.org/namespaces/inkscape"
   xmlns:sodipodi="http://sodipodi.sourceforge.net/DTD/sodipodi-0.dtd"
   xmlns="http://www.w3.org/2000/svg"
   xmlns:svg="http://www.w3.org/2000/svg">
  <defs
     id="defs8" />
  <sodipodi:namedview
     id="namedview6"
     pagecolor="#ffffff"
     bordercolor="#666666"
     borderopacity="1.0"
     inkscape:pageshadow="2"
     inkscape:pageopacity="0.0"
     inkscape:pagecheckerboard="0"
     showgrid="false"
     inkscape:zoom="1.2890625"
     inkscape:cx="287.80606"
     inkscape:cy="255.22424"
     inkscape:window-width="1280"
     inkscape:window-height="951"
     inkscape:window-x="0"
     inkscape:window-y="0"
     inkscape:window-maximized="1"
     inkscape:current-layer="svg4" />
  <!-- Font Awesome Free 5.15.4 by @fontawesome - https://fontawesome.com License - https://fontawesome.com/license/free (Icons: CC BY 4.0, Fonts: SIL OFL 1.1, Code: MIT License) -->
  <path
     d="M280.37 148.26L96 300.11V464a16 16 0 0 0 16 16l112.06-.29a16 16 0 0 0 15.92-16V368a16 16 0 0 1 16-16h64a16 16 0 0 1 16 16v95.64a16 16 0 0 0 16 16.05L464 480a16 16 0 0 0 16-16V300L295.67 148.26a12.19 12.19 0 0 0-15.3 0zM571.6 251.47L488 182.56V44.05a12 12 0 0 0-12-12h-56a12 12 0 0 0-12 12v72.61L318.47 43a48 48 0 0 0-61 0L4.34 251.47a12 12 0 0 0-1.6 16.9l25.5 31A12 12 0 0 0 45.15 301l235.22-193.74a12.19 12.19 0 0 1 15.3 0L530.9 301a12 12 0 0 0 16.9-1.6l25.5-31a12 12 0 0 0-1.7-16.93z"
     id="path2" />
  <path
     style="fill:#ffffff;stroke-width:0.775758"
     d="m 107.50869,478.84287 c -4.69811,-1.24206 -9.402017,-6.41292 -10.502321,-11.54489 -0.651696,-3.03961 -0.830521,-26.25278 -0.659379,-85.59372 l 0.234828,-81.42301 91.151512,-75.13045 c 50.13334,-41.32175 92.3671,-75.98322 93.85281,-77.02548 3.82897,-2.68611 8.83889,-2.59424 12.99661,0.23832 1.72226,1.17333 44.0148,35.79886 93.98341,76.94562 l 90.85202,74.81229 v 83.66111 c 0,68.39344 -0.19071,84.11667 -1.04504,86.15741 -1.47643,3.52674 -6.8037,8.06632 -10.7413,9.15309 -2.51599,0.69441 -17.66071,0.80466 -61.33473,0.44648 -62.79005,-0.51495 -60.05585,-0.31792 -64.84354,-4.6728 -4.55247,-4.14093 -4.35265,-1.68566 -4.77478,-58.6729 -0.38337,-51.75472 -0.4073,-52.39972 -2.05784,-55.46667 -2.0961,-3.89485 -4.52954,-6.18417 -8.20662,-7.72055 -2.45351,-1.02514 -8.13276,-1.20066 -38.84922,-1.20066 h -35.97563 l -3.41898,1.80501 c -1.88044,0.99276 -4.46626,3.29154 -5.74626,5.1084 l -2.32727,3.30339 -0.38788,52.87947 -0.38788,52.87949 -1.76077,3.2961 c -0.96844,1.81286 -3.21086,4.2565 -4.98318,5.4303 l -3.22241,2.1342 -19.0653,0.49844 c -30.8371,0.8062 -99.35563,0.60755 -102.78086,-0.29799 z"
     id="path84" />
  <path
     style="fill:#ffffff;stroke-width:0.775758"
     d="M 34.521212,302.84546 C 31.02292,301.85047 29.211497,299.98632 15.761209,283.53939 0.89295112,265.35858 0.68685731,265.05516 0.65520074,261.29965 0.61695325,256.76226 1.8109521,254.60332 6.732883,250.31021 9.2164639,248.14393 67.452121,200.08605 136.14545,143.5149 273.18869,30.65544 266.6291,35.680122 280.04848,33.284468 c 11.21019,-2.001264 23.76361,0.489399 33.03053,6.553424 2.52654,1.653305 24.76519,19.635221 49.41922,39.959815 24.65403,20.324593 44.97597,36.953813 45.15988,36.953813 0.1839,0 0.43424,-17.018187 0.55631,-37.818187 0.21322,-36.33253 0.28359,-37.924843 1.79121,-40.533333 0.92933,-1.607947 2.97352,-3.426926 5.01286,-4.460606 3.39367,-1.720146 3.87145,-1.745208 32.95195,-1.728417 33.48058,0.01933 34.13358,0.121509 37.72786,5.903482 l 1.86534,3.000693 0.20961,71.022518 0.20961,71.02252 42.57498,35.08839 c 30.26444,24.94261 42.93341,35.84376 43.81462,37.70078 1.45587,3.06803 1.53637,6.20204 0.23498,9.14928 -1.1244,2.5464 -26.39449,33.42789 -29.08668,35.54557 -3.01762,2.37366 -6.89351,3.14389 -10.15901,2.01883 -1.76167,-0.60694 -46.61453,-37.02645 -119.17812,-96.76993 -63.99433,-52.68819 -117.84595,-96.98314 -119.67026,-98.43322 -2.7014,-2.14723 -4.14103,-2.69452 -7.75758,-2.94912 -3.7417,-0.26342 -4.87613,-0.0151 -7.20756,1.57753 -1.5218,1.03959 -55.10725,44.98894 -119.07878,97.66524 -63.971534,52.6763 -117.359147,96.50507 -118.639147,97.39727 -2.824944,1.96909 -6.190282,2.58172 -9.309091,1.69465 z"
     id="path123" />
</svg>
